# xmcd CD database file
#
# Track frame offsets:
#	150
#	15660
#	34057
#	55610
#	79835
#	102897
#	123692
#	144432
#
# Disc length: 2105 seconds
#
# Revision: 0
# Processed by: cddbd v1.5PL3 Copyright (c) Steve Scherf et al.
# Submitted via: CDex 1.51
#
DISCID=61083708
DTITLE=tokyo no,1 soul set - young guys,gifted and slack!
DYEAR=1900
DGENRE=Soul
TTITLE0=SILLY JIVE TALKIN'TRASH
TTITLE1=THE BIG DUB
TTITLE2=YOUNG GUYS ALWAYS THINK ABOUT SOMETHING
TTITLE3=TOO DRINKTO LIVE
TTITLE4=SAN FRANCISCO
TTITLE5=MUSICIS GOOD FOR YOUR LIFE
TTITLE6=THE BIG PARTY
TTITLE7=IN THE PURDIE'S,BABY
EXTD=
EXTT0=
EXTT1=
EXTT2=
EXTT3=
EXTT4=
EXTT5=
EXTT6=
EXTT7=
PLAYORDER=
